<svg id="eQShDq583ri1" xmlns="http://www.w3.org/2000/svg" xmlns:xlink="http://www.w3.org/1999/xlink" viewBox="0 0 24 24" shape-rendering="geometricPrecision" text-rendering="geometricPrecision"><defs><linearGradient id="eQShDq583ri3-fill" x1="0.083204" y1="0.797932" x2="0.581585" y2="1.073221" spreadMethod="pad" gradientUnits="objectBoundingBox" gradientTransform="translate(0 0)"><stop id="eQShDq583ri3-fill-0" offset="0%" stop-color="#561139"/><stop id="eQShDq583ri3-fill-1" offset="100%" stop-color="#38a1d6"/></linearGradient></defs><path d="M0,0h24v24h-24L0,0Z" fill="none"/><path d="M19,1L14,6v11l5-4.5L19,1ZM1,6v14.65c0,.25.25.5.5.5.1,0,.15-.05.25-.05C3.1,20.45,5.05,20,6.5,20c1.95,0,4.05.4,5.5,1.5L12,6C10.55,4.9,8.45,4.5,6.5,4.5s-4.05.4-5.5,1.5ZM23,19.5L23,6c-.6-.45-1.25-.75-2-1v13.5c-1.1-.35-2.3-.5-3.5-.5-1.7,0-4.15.65-5.5,1.5v2c1.35-.85,3.8-1.5,5.5-1.5c1.65,0,3.35.3,4.75,1.05.1.05.15.05.25.05.25,0,.5-.25.5-.5v-1.1Z" transform="translate(0 0.069062)" fill="url(#eQShDq583ri3-fill)"/></svg>
