<svg width="223" height="157" xmlns="http://www.w3.org/2000/svg"><g fill="none" fill-rule="evenodd"><path fill="#662D91" d="M0 156.712h1.238L0 154.808z"/><path fill="#B62467" d="M0 154.808l1.238 1.904h14.309L0 132.78z"/><path fill="#ED1C23" d="M0 132.78l15.547 23.932h14.31L0 110.752z"/><path fill="#F05921" d="M0 110.75l29.857 45.962h14.309L0 88.722z"/><path fill="#F58A1E" d="M0 88.722l44.166 67.99h14.309L0 66.693z"/><path fill="#FDB813" d="M0 66.693l58.475 90.02h14.31L0 44.664z"/><path fill="#FFF200" d="M0 44.665l72.785 112.047h14.309L0 22.636z"/><path fill="#CADB2A" d="M0 22.635l87.094 134.077h14.31L0 .608z"/><path fill="#01A652" d="M0 0v.607l101.404 156.105h14.309L13.915 0z"/><path fill="#6CC7BE" d="M13.915 0l101.798 156.712h14.31L28.225 0z"/><path fill="#00ACDB" d="M28.225 0l101.798 156.712h14.309L42.534 0z"/><path fill="#5350A1" d="M42.534 0l101.798 156.712h14.31L56.844 0z"/><path fill="#662D91" d="M56.844 0l101.798 156.712h14.31L71.153 0z"/><path fill="#B62467" d="M71.153 0l101.8 156.712h14.308L85.463 0z"/><path fill="#ED1C23" d="M85.463 0l101.798 156.712h14.31L99.772 0z"/><path fill="#F05921" d="M99.772 0l101.8 156.712h14.308L114.082 0z"/><path fill="#F58A1E" d="M114.082 0L215.88 156.712h6.57v-11.914L128.391 0z"/><path fill="#FDB813" d="M128.391 0l94.06 144.798V122.77L142.7 0z"/><path fill="#FFF200" d="M142.701 0l79.75 122.77V100.74L157.01.001z"/><path fill="#CADB2A" d="M157.01 0l65.44 100.741V78.712L171.32 0z"/><path fill="#01A652" d="M171.32 0l51.13 78.712V56.683L185.63 0z"/><path fill="#6CC7BE" d="M185.63 0l36.82 56.683V34.654L199.94 0z"/><path fill="#00ACDB" d="M199.94 0l22.51 34.654V12.626L214.25 0z"/><path fill="#5350A1" d="M214.249 0l8.202 12.626V0z"/></g></svg>